<svg width="100" height="100" viewBox="0 0 100 100" fill="none" xmlns="http://www.w3.org/2000/svg">
<path d="M34.375 71.8749C33.5462 71.8749 32.7513 71.5457 32.1653 70.9596C31.5792 70.3736 31.25 69.5787 31.25 68.7499V31.2499C31.2503 30.7174 31.3866 30.1939 31.6461 29.7289C31.9055 29.2639 32.2795 28.8729 32.7325 28.5931C33.1855 28.3132 33.7025 28.1537 34.2344 28.1298C34.7663 28.1058 35.2956 28.2182 35.7719 28.4562L73.2719 47.2062C73.7903 47.466 74.2261 47.8649 74.5307 48.3583C74.8353 48.8517 74.9967 49.4201 74.9967 49.9999C74.9967 50.5798 74.8353 51.1482 74.5307 51.6416C74.2261 52.1349 73.7903 52.5339 73.2719 52.7937L35.7719 71.5437C35.3382 71.7609 34.86 71.8743 34.375 71.8749ZM37.5 36.3062V63.6937L64.8875 49.9999L37.5 36.3062Z" fill="#FF304F"/>
<path d="M50 12.5C57.4168 12.5 64.667 14.6993 70.8339 18.8199C77.0007 22.9404 81.8072 28.7971 84.6455 35.6494C87.4838 42.5016 88.2264 50.0416 86.7794 57.3159C85.3325 64.5902 81.761 71.272 76.5165 76.5165C71.272 81.761 64.5902 85.3325 57.3159 86.7794C50.0416 88.2264 42.5016 87.4838 35.6494 84.6455C28.7971 81.8072 22.9404 77.0007 18.8199 70.8339C14.6993 64.667 12.5 57.4168 12.5 50C12.5 40.0544 16.4509 30.5161 23.4835 23.4835C30.5161 16.4509 40.0544 12.5 50 12.5ZM50 6.25C41.3471 6.25 32.8885 8.81589 25.6938 13.6232C18.4992 18.4305 12.8916 25.2633 9.58027 33.2576C6.26894 41.2519 5.40254 50.0485 7.09064 58.5352C8.77875 67.0219 12.9455 74.8174 19.0641 80.9359C25.1826 87.0545 32.9781 91.2213 41.4648 92.9094C49.9515 94.5975 58.7481 93.7311 66.7424 90.4197C74.7367 87.1084 81.5695 81.5008 86.3768 74.3062C91.1841 67.1115 93.75 58.6529 93.75 50C93.75 38.3968 89.1406 27.2688 80.9359 19.0641C72.7312 10.8594 61.6032 6.25 50 6.25Z" fill="#FF304F"/>
</svg>
