<svg width="26" height="26" viewBox="0 0 26 26" fill="none" xmlns="http://www.w3.org/2000/svg">
<path fill-rule="evenodd" clip-rule="evenodd" d="M12.8919 3.02252C13.5314 2.38227 14.6258 2.83565 14.6258 3.74077V22.2593C14.6258 23.1644 13.5314 23.6178 12.8919 22.9775L7.78944 17.875H3.25C2.81902 17.875 2.4057 17.7038 2.10095 17.3991C1.7962 17.0943 1.625 16.681 1.625 16.25V9.75002C1.625 9.31904 1.7962 8.90572 2.10095 8.60097C2.4057 8.29623 2.81902 8.12502 3.25 8.12502H7.78863L12.8911 3.02252H12.8919ZM13 5.2114L8.9375 9.2739C8.63302 9.57846 8.2201 9.74971 7.78944 9.75002H3.25V16.25H7.78863C8.21957 16.2501 8.63282 16.4214 8.9375 16.7261L13 20.7886V5.2114ZM22.2739 13L24.9494 10.3245L23.8006 9.17558L21.125 11.8511L18.4494 9.17558L17.3006 10.3245L19.9761 13L17.3006 15.6756L18.4494 16.8245L21.125 14.1489L23.8006 16.8245L24.9494 15.6756L22.2739 13Z" fill="#FF304F"/>
</svg>
