<svg width="100" height="100" viewBox="0 0 100 100" fill="none" xmlns="http://www.w3.org/2000/svg">
<path d="M37.5 25V75H25V25H37.5ZM37.5 18.75H25C23.3424 18.75 21.7527 19.4085 20.5806 20.5806C19.4085 21.7527 18.75 23.3424 18.75 25V75C18.75 76.6576 19.4085 78.2473 20.5806 79.4194C21.7527 80.5915 23.3424 81.25 25 81.25H37.5C39.1576 81.25 40.7473 80.5915 41.9194 79.4194C43.0915 78.2473 43.75 76.6576 43.75 75V25C43.75 23.3424 43.0915 21.7527 41.9194 20.5806C40.7473 19.4085 39.1576 18.75 37.5 18.75V18.75Z" fill="#FF304F"/>
<path d="M75 25V75H62.5V25H75ZM75 18.75H62.5C60.8424 18.75 59.2527 19.4085 58.0806 20.5806C56.9085 21.7527 56.25 23.3424 56.25 25V75C56.25 76.6576 56.9085 78.2473 58.0806 79.4194C59.2527 80.5915 60.8424 81.25 62.5 81.25H75C76.6576 81.25 78.2473 80.5915 79.4194 79.4194C80.5915 78.2473 81.25 76.6576 81.25 75V25C81.25 23.3424 80.5915 21.7527 79.4194 20.5806C78.2473 19.4085 76.6576 18.75 75 18.75V18.75Z" fill="#FF304F"/>
</svg>
