<svg width="100" height="100" viewBox="0 0 100 100" fill="none" xmlns="http://www.w3.org/2000/svg">
<path fill-rule="evenodd" clip-rule="evenodd" d="M34.9531 49.9998L81.25 20.2998V79.6998L34.9531 49.9998ZM87.5 16.0123C87.5 15.3111 87.3112 14.6229 86.9535 14.0198C86.5958 13.4167 86.0823 12.921 85.467 12.5848C84.8517 12.2485 84.1572 12.0841 83.4565 12.1087C82.7557 12.1334 82.0745 12.3462 81.4844 12.7248L28.5062 46.7123C27.9553 47.0659 27.5021 47.5522 27.1882 48.1267C26.8743 48.7011 26.7098 49.3452 26.7098 49.9998C26.7098 50.6544 26.8743 51.2986 27.1882 51.873C27.5021 52.4474 27.9553 52.9338 28.5062 53.2873L81.4844 87.2748C82.0745 87.6535 82.7557 87.8663 83.4565 87.8909C84.1572 87.9155 84.8517 87.7511 85.467 87.4149C86.0823 87.0786 86.5958 86.5829 86.9535 85.9798C87.3112 85.3768 87.5 84.6885 87.5 83.9873V16.0123ZM18.75 87.4998V12.4998H12.5V87.4998H18.75Z" fill="#FF304F"/>
</svg>
