<svg width="100" height="100" viewBox="0 0 100 100" fill="none" xmlns="http://www.w3.org/2000/svg">
<path fill-rule="evenodd" clip-rule="evenodd" d="M71.4938 53.2875C72.0447 52.934 72.4979 52.4476 72.8118 51.8732C73.1257 51.2987 73.2902 50.6546 73.2902 50C73.2902 49.3454 73.1257 48.7013 72.8118 48.1269C72.4979 47.5524 72.0447 47.0661 71.4938 46.7125L18.5125 12.725C17.9224 12.3472 17.2415 12.1351 16.5412 12.1109C15.8409 12.0866 15.147 12.2512 14.5322 12.5874C13.9174 12.9236 13.4044 13.4189 13.0468 14.0215C12.6893 14.6241 12.5004 15.3118 12.5 16.0125V83.9875C12.5004 84.6882 12.6893 85.3759 13.0468 85.9785C13.4044 86.5811 13.9174 87.0765 14.5322 87.4126C15.147 87.7488 15.8409 87.9134 16.5412 87.8892C17.2415 87.865 17.9224 87.6528 18.5125 87.275L71.4938 53.2875ZM18.75 20.3L65.0437 50L18.75 79.7V20.3ZM81.25 12.5V87.5H87.5V12.5H81.25Z" fill="#FF304F"/>
</svg>
