<svg width="26" height="26" viewBox="0 0 26 26" fill="none" xmlns="http://www.w3.org/2000/svg">
<path fill-rule="evenodd" clip-rule="evenodd" d="M12.8919 3.02252C13.5314 2.38227 14.6258 2.83565 14.6258 3.74077V22.2593C14.6258 23.1644 13.5322 23.6178 12.8919 22.9775L7.78944 17.875H3.25C2.81902 17.875 2.4057 17.7038 2.10095 17.3991C1.7962 17.0943 1.625 16.681 1.625 16.25V9.75002C1.625 9.31904 1.7962 8.90572 2.10095 8.60097C2.4057 8.29623 2.81902 8.12502 3.25 8.12502H7.78863L12.8911 3.02252H12.8919ZM13.0008 5.2114L8.93831 9.2739C8.63364 9.57866 8.22038 9.74993 7.78944 9.75002H3.25V16.25H7.78863C8.21957 16.2501 8.63282 16.4214 8.9375 16.7261L13 20.7886V5.2114H13.0008ZM21.8457 6.55446C23.4736 8.3057 24.3772 10.609 24.3742 13C24.3772 15.3911 23.4736 17.6943 21.8457 19.4456L20.6546 18.3406C22.0038 16.8898 22.7524 14.9812 22.7492 13C22.7524 11.0188 22.0038 9.11022 20.6546 7.65946L21.8457 6.55446ZM20.3117 13C20.3137 11.4524 19.7376 9.95985 18.6964 8.81483L17.4931 9.90683C18.2632 10.7528 18.6892 11.8561 18.6875 13C18.6875 14.1911 18.2358 15.275 17.4931 16.0932L18.6956 17.186C19.7375 16.041 20.3142 14.5481 20.3125 13H20.3117Z" fill="#FF304F"/>
</svg>
