<svg width="24" height="24" viewBox="0 0 24 24" fill="none" xmlns="http://www.w3.org/2000/svg">
<path d="M22 3C22 2.73478 21.8946 2.48043 21.7071 2.29289C21.5196 2.10536 21.2652 2 21 2H9C8.73479 2 8.48043 2.10536 8.2929 2.29289C8.10536 2.48043 8 2.73478 8 3V14.556C7.39466 14.1961 6.70426 14.0041 6 14C5.20888 14 4.43552 14.2346 3.77772 14.6741C3.11992 15.1136 2.60723 15.7384 2.30448 16.4693C2.00173 17.2002 1.92252 18.0044 2.07686 18.7804C2.2312 19.5563 2.61216 20.269 3.17157 20.8284C3.73098 21.3878 4.44372 21.7688 5.21964 21.9231C5.99556 22.0775 6.79983 21.9983 7.53074 21.6955C8.26164 21.3928 8.88635 20.8801 9.32588 20.2223C9.76541 19.5645 10 18.7911 10 18V8H20V14.556C19.3947 14.1961 18.7043 14.0041 18 14C17.2089 14 16.4355 14.2346 15.7777 14.6741C15.1199 15.1136 14.6072 15.7384 14.3045 16.4693C14.0017 17.2002 13.9225 18.0044 14.0769 18.7804C14.2312 19.5563 14.6122 20.269 15.1716 20.8284C15.731 21.3878 16.4437 21.7688 17.2196 21.9231C17.9956 22.0775 18.7998 21.9983 19.5307 21.6955C20.2616 21.3928 20.8864 20.8801 21.3259 20.2223C21.7654 19.5645 22 18.7911 22 18V3ZM6 20C5.60444 20 5.21776 19.8827 4.88886 19.6629C4.55996 19.4432 4.30362 19.1308 4.15224 18.7654C4.00087 18.3999 3.96126 17.9978 4.03843 17.6098C4.1156 17.2219 4.30608 16.8655 4.58579 16.5858C4.86549 16.3061 5.22186 16.1156 5.60982 16.0384C5.99778 15.9613 6.39992 16.0009 6.76537 16.1522C7.13082 16.3036 7.44318 16.56 7.66294 16.8889C7.8827 17.2178 8 17.6044 8 18C8 18.5304 7.78929 19.0391 7.41422 19.4142C7.03914 19.7893 6.53043 20 6 20ZM10 6V4H20V6H10ZM18 20C17.6044 20 17.2178 19.8827 16.8889 19.6629C16.56 19.4432 16.3036 19.1308 16.1522 18.7654C16.0009 18.3999 15.9613 17.9978 16.0384 17.6098C16.1156 17.2219 16.3061 16.8655 16.5858 16.5858C16.8655 16.3061 17.2219 16.1156 17.6098 16.0384C17.9978 15.9613 18.3999 16.0009 18.7654 16.1522C19.1308 16.3036 19.4432 16.56 19.6629 16.8889C19.8827 17.2178 20 17.6044 20 18C20 18.5304 19.7893 19.0391 19.4142 19.4142C19.0391 19.7893 18.5304 20 18 20Z" fill="url(#paint0_linear)"/>
<defs>
<linearGradient id="paint0_linear" x1="12" y1="2" x2="12" y2="22" gradientUnits="userSpaceOnUse">
<stop stop-color="#FF304F"/>
<stop offset="1" stop-color="#28C7FA"/>
</linearGradient>
</defs>
</svg>
